<svg width="100%" viewBox="0 0 200 200" xmlns="http://www.w3.org/2000/svg">
  <defs>
    <linearGradient id="yt1" gradientUnits="userSpaceOnUse" x1="7" y1="54" x2="64" y2="80">
      <stop offset="0" stop-color="#905CFB"></stop>
      <stop offset="0.33" stop-color="#3596F5"></stop>
      <stop offset="0.63" stop-color="#0CB0F2"></stop>
    </linearGradient>
    <linearGradient id="yt2" gradientUnits="userSpaceOnUse" x1="30" y1="14" x2="1" y2="38">
      <stop offset="0" stop-color="#905CFB"></stop>
      <stop offset="0.39" stop-color="#F43597"></stop>
      <stop offset="0.47" stop-color="#FF318C"></stop>
    </linearGradient>
    <linearGradient id="yt3" gradientUnits="userSpaceOnUse" x1="5" y1="50" x2="74" y2="93">
      <stop offset="0" stop-color="#905CFB"></stop>
      <stop offset="0.33" stop-color="#3596F5"></stop>
      <stop offset="0.63" stop-color="#0CB0F2"></stop>
    </linearGradient>
    <linearGradient id="sg" x1="0%" y1="0%" x2="100%" y2="100%">
      <stop offset="0%" stop-color="#905CFB"></stop>
      <stop offset="100%" stop-color="#0CB0F2"></stop>
    </linearGradient>
  </defs>

  <!-- YouTrack logo centered -->
  <g transform="translate(65, 65) scale(1.0)">
    <path fill="url(#yt1)" d="M66.9,47.5c-0.2-0.2-13.1-12.6-13.1-12.6s9.8-10.4,12.4-13c0.8-0.8,1.5-1.6,2-2.6
      c3.6-6.1,1.5-13.9-4.6-17.5c-4.5-2.6-10.1-2.2-14.1,0.8c-0.7,0.5-1.3,1-1.9,1.6C47.3,4.6,33.7,17,21.9,27.8l22.1,14L20.8,67.9
      c-1.4,1-2.8,1.6-4.3,1.9c0.3,0,0.5,0,0.8-0.1c4.6-0.7,43.9-7.3,45.8-7.7c2.3-0.4,4.4-1.8,5.7-3.9C71,54.5,70,50,66.9,47.5z"></path>
    <path fill="url(#yt2)" d="M45.9,30.5c-0.4-2.7-1.8-4.9-3.8-6.5C40,22.4,23.8,5.6,22,3.7C19.2,1,15.2-0.5,11.1,0.2
      C4.1,1.2-0.8,7.8,0.3,14.8c0.5,3.5,2.5,6.5,5.1,8.4c2.6,2,23,16,24.3,17c2.1,1.6,4.9,2.5,7.7,2C42.9,41.2,46.8,36,45.9,30.5z"></path>
    <path fill="url(#yt3)" d="M23,67.8c0.1,0,23.3-26.1,23.3-26.1L22.9,26.9c-8.3,7.6-16,14.5-17.8,16.2
      c-1.1,1-2.2,2.3-3,3.7c-4.3,7.4-1.8,16.8,5.6,21.1C10.7,69.6,17.5,71.7,23,67.8z"></path>
    <rect x="13.4" y="13.4" fill="#1a1a1a" width="43.2" height="43.2"></rect>
    <rect x="17.4" y="48.5" fill="#fff" width="16.2" height="2.7"></rect>
    <polygon fill="#fff"
             points="23.8,29.9 17,19.1 21.6,19.1 25.8,26.2 30.2,19.1 34.7,19.1 27.8,29.8 27.8,37 23.8,37"></polygon>
    <polygon fill="#fff" points="41.6,22.7 36.1,22.7 36.1,19.1 51,19.1 51,22.7 45.5,22.7 45.5,37 41.6,37"></polygon>
  </g>

  <!-- Badge sits on top, bottom-right of the YT black square -->
  <!-- black square bottom-right corner is at: translate(65,65) + rect(13.4+43.2, 13.4+43.2) = (121.6, 121.6) -->
  <!-- badge center at ~(122, 122) -->
  <rect x="104" y="104" width="30" height="30" rx="7" fill="#1a1a1a"></rect>
  <!-- right arrow -->
  <path d="M110 114 Q119 109 128 114" fill="none" stroke="url(#sg)" stroke-width="2" stroke-linecap="round"></path>
  <polyline points="125,111 129,114 125,118" fill="none" stroke="#0CB0F2" stroke-width="1.8" stroke-linecap="round"
            stroke-linejoin="round"></polyline>
  <!-- left arrow -->
  <path d="M128 122 Q119 127 110 122" fill="none" stroke="url(#sg)" stroke-width="2" stroke-linecap="round"></path>
  <polyline points="113,119 109,122 113,126" fill="none" stroke="#905CFB" stroke-width="1.8" stroke-linecap="round"
            stroke-linejoin="round"></polyline>
</svg>
